<svg width="24" height="24" viewBox="0 0 24 24" fill="none" xmlns="http://www.w3.org/2000/svg">
<g clip-path="url(#clip0_177_2335)" filter="url(#filter0_d_177_2335)">
<path fill-rule="evenodd" clip-rule="evenodd" d="M5 8C5 9.85652 5.7375 11.637 7.05025 12.9497C8.36301 14.2625 10.1435 15 12 15C13.8565 15 15.637 14.2625 16.9497 12.9497C18.2625 11.637 19 9.85652 19 8C19 6.14348 18.2625 4.36301 16.9497 3.05025C15.637 1.7375 13.8565 1 12 1C10.1435 1 8.36301 1.7375 7.05025 3.05025C5.7375 4.36301 5 6.14348 5 8ZM20 8C20 10.1217 19.1571 12.1566 17.6569 13.6569C16.1566 15.1571 14.1217 16 12 16C9.87827 16 7.84344 15.1571 6.34315 13.6569C4.84285 12.1566 4 10.1217 4 8C4 5.87827 4.84285 3.84344 6.34315 2.34315C7.84344 0.842855 9.87827 0 12 0C14.1217 0 16.1566 0.842855 17.6569 2.34315C19.1571 3.84344 20 5.87827 20 8ZM12.5 4.5C12.5 4.36739 12.4473 4.24021 12.3536 4.14645C12.2598 4.05268 12.1326 4 12 4C11.8674 4 11.7402 4.05268 11.6464 4.14645C11.5527 4.24021 11.5 4.36739 11.5 4.5V10.293L9.354 8.146C9.26011 8.05211 9.13278 7.99937 9 7.99937C8.86722 7.99937 8.73989 8.05211 8.646 8.146C8.55211 8.23989 8.49937 8.36722 8.49937 8.5C8.49937 8.63278 8.55211 8.76011 8.646 8.854L11.646 11.854C11.6924 11.9006 11.7476 11.9375 11.8084 11.9627C11.8691 11.9879 11.9342 12.0009 12 12.0009C12.0658 12.0009 12.1309 11.9879 12.1916 11.9627C12.2524 11.9375 12.3076 11.9006 12.354 11.854L15.354 8.854C15.4479 8.76011 15.5006 8.63278 15.5006 8.5C15.5006 8.36722 15.4479 8.23989 15.354 8.146C15.2601 8.05211 15.1328 7.99937 15 7.99937C14.8672 7.99937 14.7399 8.05211 14.646 8.146L12.5 10.293V4.5Z" fill="white"/>
</g>
<defs>
<filter id="filter0_d_177_2335" x="0" y="0" width="24" height="24" filterUnits="userSpaceOnUse" color-interpolation-filters="sRGB">
<feFlood flood-opacity="0" result="BackgroundImageFix"/>
<feColorMatrix in="SourceAlpha" type="matrix" values="0 0 0 0 0 0 0 0 0 0 0 0 0 0 0 0 0 0 127 0" result="hardAlpha"/>
<feOffset dy="4"/>
<feGaussianBlur stdDeviation="2"/>
<feComposite in2="hardAlpha" operator="out"/>
<feColorMatrix type="matrix" values="0 0 0 0 0 0 0 0 0 0 0 0 0 0 0 0 0 0 0.25 0"/>
<feBlend mode="normal" in2="BackgroundImageFix" result="effect1_dropShadow_177_2335"/>
<feBlend mode="normal" in="SourceGraphic" in2="effect1_dropShadow_177_2335" result="shape"/>
</filter>
<clipPath id="clip0_177_2335">
<rect width="16" height="16" fill="white" transform="translate(4)"/>
</clipPath>
</defs>
</svg>
