<svg width="66" height="66" viewBox="0 0 66 66" fill="none" xmlns="http://www.w3.org/2000/svg">
<circle cx="33" cy="33" r="33" fill="#D9D9D9"/>
<path d="M21.75 35.85C21.9489 35.85 22.1397 35.929 22.2803 36.0697C22.421 36.2103 22.5 36.4011 22.5 36.6V40.35C22.5 40.7478 22.658 41.1294 22.9393 41.4107C23.2206 41.692 23.6022 41.85 24 41.85H42C42.3978 41.85 42.7794 41.692 43.0607 41.4107C43.342 41.1294 43.5 40.7478 43.5 40.35V36.6C43.5 36.4011 43.579 36.2103 43.7197 36.0697C43.8603 35.929 44.0511 35.85 44.25 35.85C44.4489 35.85 44.6397 35.929 44.7803 36.0697C44.921 36.2103 45 36.4011 45 36.6V40.35C45 41.1457 44.6839 41.9087 44.1213 42.4713C43.5587 43.0339 42.7956 43.35 42 43.35H24C23.2044 43.35 22.4413 43.0339 21.8787 42.4713C21.3161 41.9087 21 41.1457 21 40.35V36.6C21 36.4011 21.079 36.2103 21.2197 36.0697C21.3603 35.929 21.5511 35.85 21.75 35.85V35.85Z" fill="black"/>
<path d="M32.469 38.781C32.5386 38.8508 32.6214 38.9063 32.7125 38.9441C32.8036 38.9819 32.9013 39.0013 33 39.0013C33.0986 39.0013 33.1963 38.9819 33.2874 38.9441C33.3785 38.9063 33.4613 38.8508 33.531 38.781L38.031 34.281C38.1718 34.1402 38.2509 33.9492 38.2509 33.75C38.2509 33.5508 38.1718 33.3598 38.031 33.219C37.8901 33.0782 37.6991 32.9991 37.5 32.9991C37.3008 32.9991 37.1098 33.0782 36.969 33.219L33.75 36.4395V23.25C33.75 23.0511 33.671 22.8603 33.5303 22.7197C33.3896 22.579 33.1989 22.5 33 22.5C32.8011 22.5 32.6103 22.579 32.4696 22.7197C32.329 22.8603 32.25 23.0511 32.25 23.25V36.4395L29.031 33.219C28.8901 33.0782 28.6991 32.9991 28.5 32.9991C28.3008 32.9991 28.1098 33.0782 27.969 33.219C27.8281 33.3598 27.749 33.5508 27.749 33.75C27.749 33.9492 27.8281 34.1402 27.969 34.281L32.469 38.781V38.781Z" fill="black"/>
</svg>
