<svg width="172" height="66" viewBox="0 0 172 66" fill="none" xmlns="http://www.w3.org/2000/svg">
<g clip-path="url(#clip0_103_3)">
<path d="M33.938 0.000244141C42.3706 0.360426 49.9728 3.97528 55.5571 9.6404C55.7434 9.82946 55.9282 10.0218 56.1113 10.2173L53.0926 14.1174C52.7842 13.7719 52.4677 13.4345 52.1432 13.1053C47.8875 8.78803 42.2518 5.86746 35.967 5.08353L33.938 0.00187392V0.000244141ZM53.4686 58.2715C47.8104 63.094 40.5119 65.9999 32.5451 65.9999C24.5767 65.9999 17.2782 63.094 11.6216 58.2715H20.4142C24.0787 60.0838 28.1946 61.1008 32.5451 61.1008C40.1986 61.1008 47.1276 57.9537 52.1432 52.8655C52.3665 52.6389 52.585 52.4091 52.8002 52.1761L51.6275 58.2715H53.4702H53.4686ZM5.54414 51.4215C2.04351 46.1573 0 39.8126 0 32.9838C0 23.8668 3.64361 15.6136 9.53155 9.63877C11.0786 8.06929 12.78 6.6579 14.6098 5.43068L13.135 12.913C13.0723 12.9766 13.0081 13.0385 12.9454 13.1037C7.92984 18.1919 4.82763 25.2211 4.82763 32.9854C4.82763 36.8757 5.60679 40.5834 7.01572 43.9522L5.54253 51.4215H5.54414Z" fill="#CBCBCB"/>
<path fill-rule="evenodd" clip-rule="evenodd" d="M79.8269 1.50282L69.4583 54.8619H55.708L61.1188 26.7335L57.6503 31.2643L60.261 19.4223L49.4249 24.3768L67.1305 1.50119H79.8285L79.8269 1.50282ZM58.8119 21.3585L48.0112 26.2967C56.3009 33.1499 46.9541 25.4231 56.2254 33.088L58.8119 21.3585ZM56.2237 33.1271L43.6109 49.6026H37.0739L27.5311 26.7351L21.9709 54.8635H8.29611L18.8157 1.50445H30.9129L43.2365 32.3758L47.9501 26.2853L51.6194 29.3183L51.6355 29.333L51.6451 29.3395L51.6532 29.346L51.6708 29.3607L51.6757 29.3639L51.6853 29.3721L51.6901 29.377L51.6965 29.3819L51.7222 29.4031L56.2254 33.1255L56.2237 33.1271Z" fill="#F4F4F4"/>
<path fill-rule="evenodd" clip-rule="evenodd" d="M83.9573 1.50284H94.5925L87.0724 39.6495H76.4355L83.9573 1.50284Z" fill="#F4F4F4"/>
<path fill-rule="evenodd" clip-rule="evenodd" d="M119.733 19.0507L132.357 39.6495H120.485L111.835 25.917L106.948 30.3858L105.122 39.6495H94.6472L102.167 1.50284H112.642L109.58 17.0884L126.554 1.50284H139.071L119.733 19.0507Z" fill="#F4F4F4"/>
<path fill-rule="evenodd" clip-rule="evenodd" d="M151.372 9.8408L150.137 16.2719H166.843L165.286 24.3361H148.525L147.182 31.3116H166.898L165.179 39.6495H135.042L142.564 1.50284H172L170.336 9.8408H151.372Z" fill="#F4F4F4"/>
<path fill-rule="evenodd" clip-rule="evenodd" d="M75.8186 44.001H165.453L163.275 54.8619H73.6048L75.8186 44.001ZM86.0249 45.388L84.6481 52.4726H82.8215L83.5396 48.7372L81.215 51.7735H80.3474L79.0799 48.7372L78.3409 52.4726H76.5255L77.9216 45.388H79.5281L81.1652 49.4869L84.3381 45.388H86.0233H86.0249ZM93.8519 51.0971H90.8782L90.0702 52.4743H87.9849L92.4639 45.3896H94.4094L96.0947 52.4743H94.1299L93.8503 51.0971H93.8519ZM93.5531 49.6189L93.084 47.3209L91.7474 49.6189H93.5531ZM106.637 47.6452C106.637 48.2923 106.468 48.8513 106.127 49.3206C105.788 49.79 105.313 50.1323 104.701 50.3474L105.888 52.4726H103.822L102.784 50.5902H101.787L101.417 52.4726H99.4411L100.839 45.388H103.822C104.714 45.388 105.404 45.5868 105.898 45.9845C106.389 46.3821 106.637 46.9363 106.637 47.6436V47.6452ZM104.641 47.8375C104.641 47.5474 104.545 47.3291 104.352 47.184C104.159 47.039 103.89 46.9656 103.544 46.9656H102.506L102.087 49.0403H103.265C103.703 49.0403 104.042 48.936 104.282 48.7258C104.521 48.5172 104.64 48.2189 104.64 47.8343L104.641 47.8375ZM114.265 48.6475L116.608 52.4726H114.404L112.798 49.922L111.89 50.7516L111.551 52.4726H109.606L111.003 45.388H112.949L112.38 48.2825L115.532 45.388H117.857L114.265 48.6475ZM122.919 46.9379L122.689 48.1325H125.791L125.502 49.6303H122.389L122.14 50.926H125.801L125.481 52.4743H119.884L121.282 45.3896H126.749L126.439 46.9379H122.917H122.919ZM131.933 46.9786H129.788L130.108 45.3896H136.364L136.044 46.9786H133.909L132.822 52.4743H130.846L131.933 46.9786ZM139.879 45.3896H141.855L140.457 52.4743H138.481L139.879 45.3896ZM152.673 45.3896L151.276 52.4743H149.65L147.345 48.5872L146.577 52.4743H144.641L146.038 45.3896H147.664L149.979 49.2669L150.738 45.3896H152.673ZM160.87 48.7796H162.616L162.028 51.7653C161.668 52.0424 161.252 52.2526 160.777 52.3977C160.301 52.5427 159.8 52.6161 159.275 52.6161C158.569 52.6161 157.953 52.4857 157.424 52.2265C156.895 51.9674 156.486 51.6007 156.197 51.1281C155.907 50.6554 155.763 50.1127 155.763 49.4983C155.763 48.6818 155.949 47.9516 156.322 47.3062C156.695 46.6625 157.217 46.1572 157.888 45.7938C158.56 45.4287 159.331 45.2478 160.203 45.2478C161.586 45.2478 162.602 45.683 163.246 46.5533L161.829 47.6876C161.603 47.404 161.354 47.2036 161.08 47.0846C160.807 46.9656 160.484 46.9069 160.112 46.9069C159.639 46.9069 159.225 47.0129 158.87 47.2264C158.515 47.4382 158.24 47.7316 158.047 48.1016C157.855 48.4732 157.758 48.8936 157.758 49.3663C157.758 49.852 157.914 50.2382 158.227 50.5251C158.541 50.8119 158.979 50.9553 159.545 50.9553C159.884 50.9553 160.194 50.8983 160.473 50.7826L160.872 48.7779L160.87 48.7796Z" fill="#CBCBCB"/>
</g>
<defs>
<clipPath id="clip0_103_3">
<rect width="172" height="66" fill="white"/>
</clipPath>
</defs>
</svg>
