<svg width="24" height="24" viewBox="0 0 24 24" fill="none" xmlns="http://www.w3.org/2000/svg">
<g clip-path="url(#clip0_177_2343)">
<path d="M17.6134 15.5151C19.0658 13.5331 19.7163 11.0758 19.4348 8.63479C19.1533 6.19378 17.9605 3.94908 16.095 2.34976C14.2295 0.750449 11.829 -0.0855273 9.37362 0.00908244C6.91825 0.103692 4.58915 1.12191 2.85227 2.86003C1.1154 4.59815 0.098846 6.92798 0.00599324 9.38342C-0.0868595 11.8389 0.750834 14.2388 2.35148 16.1031C3.95213 17.9675 6.19769 19.1587 8.6389 19.4384C11.0801 19.7182 13.5369 19.0659 15.5179 17.6121H15.5164C15.5614 17.6721 15.6094 17.7291 15.6634 17.7846L21.4384 23.5596C21.7196 23.841 22.1012 23.9992 22.4991 23.9994C22.897 23.9995 23.2787 23.8416 23.5601 23.5603C23.8416 23.2791 23.9998 22.8975 23.9999 22.4996C24.0001 22.1017 23.8421 21.72 23.5609 21.4386L17.7859 15.6636C17.7322 15.6093 17.6746 15.5591 17.6134 15.5136V15.5151ZM18.0004 9.74907C18.0004 10.8325 17.787 11.9053 17.3724 12.9062C16.9578 13.9071 16.3501 14.8166 15.584 15.5827C14.8179 16.3488 13.9084 16.9565 12.9075 17.3711C11.9066 17.7857 10.8338 17.9991 9.75037 17.9991C8.66696 17.9991 7.59417 17.7857 6.59323 17.3711C5.5923 16.9565 4.68282 16.3488 3.91674 15.5827C3.15066 14.8166 2.54297 13.9071 2.12836 12.9062C1.71376 11.9053 1.50037 10.8325 1.50037 9.74907C1.50037 7.56103 2.36956 5.46261 3.91674 3.91544C5.46391 2.36826 7.56233 1.49907 9.75037 1.49907C11.9384 1.49907 14.0368 2.36826 15.584 3.91544C17.1312 5.46261 18.0004 7.56103 18.0004 9.74907Z" fill="white"/>
</g>
<defs>
<clipPath id="clip0_177_2343">
<rect width="24" height="24" fill="white"/>
</clipPath>
</defs>
</svg>
